<?xml version="1.0" standalone="no"?><!DOCTYPE svg PUBLIC "-//W3C//DTD SVG 1.1//EN" "http://www.w3.org/Graphics/SVG/1.1/DTD/svg11.dtd"><svg t="1747387484683" class="icon" viewBox="0 0 1024 1024" version="1.1" xmlns="http://www.w3.org/2000/svg" p-id="12196" xmlns:xlink="http://www.w3.org/1999/xlink" width="16" height="16"><path d="M256 256V160H160A32 32 0 0 0 128 192v64h128zM896 256V192a32 32 0 0 0-32-32H320V256h576z" fill="#89DDFF" p-id="12197"></path><path d="M128 320v512a32 32 0 0 0 32 32h704a32 32 0 0 0 32-32V320H128z m278.656 278.656L288 717.248l-45.248-45.248 96-96-96-96 45.248-45.248 118.656 118.592a32 32 0 0 1 0 45.248zM480 704h192v-64h-192v64z" fill="#3965BD" p-id="12198"></path></svg>