<?xml version="1.0" standalone="no"?><!DOCTYPE svg PUBLIC "-//W3C//DTD SVG 1.1//EN" "http://www.w3.org/Graphics/SVG/1.1/DTD/svg11.dtd"><svg t="1747387186374" class="icon" viewBox="0 0 1024 1024" version="1.1" xmlns="http://www.w3.org/2000/svg" p-id="3685" xmlns:xlink="http://www.w3.org/1999/xlink" width="16" height="16"><path d="M8 512c0 180 97.2 345.6 252 435.6s349.2 90 504 0S1016 692 1016 512 918.8 166.4 764 76.4s-349.2-90-504 0S8 332 8 512z" fill="#FFFFFF" p-id="3686"></path><path d="M263.6 447.2l-144-248.4C209.6 83.6 353.6 8 512 8c183.6 0 345.6 100.8 432 244.8H512c-118.8 3.6-219.6 82.8-248.4 194.4z" fill="#DD4E41" p-id="3687"></path><path d="M692 328.4h288c21.6 57.6 36 118.8 36 183.6 0 277.2-223.2 500.4-496.8 504l205.2-356.4C753.2 620 771.2 566 771.2 512c0-72-32.4-136.8-79.2-183.6z" fill="#FFCD41" p-id="3688"></path><path d="M328.4 512c0-100.8 82.8-183.6 183.6-183.6S695.6 411.2 695.6 512 612.8 695.6 512 695.6 328.4 612.8 328.4 512z" fill="#4C8BF5" p-id="3689"></path><path d="M580.4 760.4l-144 252C195.2 976.4 8 764 8 512c0-90 25.2-172.8 64.8-244.8L278 620c43.2 86.4 129.6 147.6 234 147.6 25.2 3.6 46.8 0 68.4-7.2z" fill="#1DA362" p-id="3690"></path><path d="M917.266 757.856a323.085 323.085 0 0 1-41.33 18.5 402.518 402.518 0 0 1-141.31 25.586c-186.183 0-348.356-127.928-348.356-292.461a123.518 123.518 0 0 1 64.554-107.46c-168.47 7.086-211.768 182.641-211.768 285.377 0 290.886 268.056 320.408 325.919 320.408 31.096 0 77.937-9.054 106.278-18.107l5.117-1.574a503.836 503.836 0 0 0 262.152-207.833 15.745 15.745 0 0 0-4.724-21.649 16.571 16.571 0 0 0-16.532-0.787z" fill="#0F5197" p-id="3691"></path><path d="M424.058 958.21a312.85 312.85 0 0 1-89.352-83.842 317.692 317.692 0 0 1 116.118-472.346 130.407 130.407 0 0 1 61.012-15.745 128.281 128.281 0 0 1 101.16 51.17 126.786 126.786 0 0 1 25.192 73.608c0-0.787 96.438-313.323-314.897-313.323-172.8 0-314.897 164.14-314.897 307.812a513.361 513.361 0 0 0 47.628 220.429 504.111 504.111 0 0 0 615.624 264.12 298.287 298.287 0 0 1-247.588-31.884z" fill="#0C88DA" p-id="3692"></path><path d="M607.486 594.11c-3.15 3.936-12.99 9.84-12.99 22.436 0 10.234 6.692 20.074 18.5 28.34 56.682 39.363 163.354 34.246 163.747 34.246A235.189 235.189 0 0 0 896.01 646.46a241.29 241.29 0 0 0 119.661-208.226c1.181-88.171-31.49-146.82-44.479-172.8a433.614 433.614 0 0 0-82.424-112.064A485.926 485.926 0 0 0 748.324 57.8 573.428 573.428 0 0 0 511.836 8.007 503.836 503.836 0 0 0 8 504.757c1.968-143.672 144.853-259.79 314.897-259.79 13.777 0 92.501 1.18 165.321 39.756 64.16 33.851 98.012 74.394 121.236 114.937 24.404 42.118 28.734 94.863 28.734 116.119s-10.627 52.351-30.702 78.33z" fill="#2CC3D5" p-id="3693"></path><path d="M647.399 22.886s366.816 379.136-47.786 583.977c0 0-26.805 44.518 101.24 67.545 0 0 212.123 46.093 297.735-140.287 17.24-58.452 32.592-149.025-12.99-249.831a421.175 421.175 0 0 0-75.771-111.907 537.845 537.845 0 0 0-111.317-93.21C731.122 44.732 647.4 22.886 647.4 22.886z" fill="#49D668" p-id="3694"></path></svg>