<?xml version="1.0" standalone="no"?><!DOCTYPE svg PUBLIC "-//W3C//DTD SVG 1.1//EN" "http://www.w3.org/Graphics/SVG/1.1/DTD/svg11.dtd"><svg t="1747387513648" class="icon" viewBox="0 0 1024 1024" version="1.1" xmlns="http://www.w3.org/2000/svg" p-id="14474" xmlns:xlink="http://www.w3.org/1999/xlink" width="16" height="16"><path d="M703.624533 187.733333c1.706667 0 3.413333 0.477867 4.881067 1.365334l43.042133 24.968533c5.0688 2.952533 8.192 8.362667 8.192 14.199467v313.685333a16.605867 16.605867 0 0 1-8.328533 14.353067l-98.884267 57.5488a16.520533 16.520533 0 0 1-16.7936 0l-98.901333-57.5488a16.571733 16.571733 0 0 1-8.311467-14.370134v-115.2c0-5.9392 3.1744-11.4176 8.311467-14.370133l98.901333-57.5488a16.520533 16.520533 0 0 1 16.7936 0l41.147734 23.9616V197.614933c0-5.461333 4.437333-9.8816 9.898666-9.8816z m-59.4944 238.421334l-49.544533 28.842666v58.641067l49.544533 28.842667 49.544534-28.842667v-58.606933l-49.544534-28.842667v-0.017067z" fill="#404137" p-id="14475"></path><path d="M379.869867 352.580267a16.7424 16.7424 0 0 0-8.3968 2.235733l-98.884267 57.5488a16.605867 16.605867 0 0 0-8.328533 14.370133v115.2c0 5.9392 3.1744 11.400533 8.328533 14.370134l98.884267 57.5488a16.930133 16.930133 0 0 0 16.7936 0l98.901333-57.5488a16.605867 16.605867 0 0 0 8.311467-14.370134v-115.2a16.5376 16.5376 0 0 0-8.311467-14.370133L388.266667 354.816a16.7424 16.7424 0 0 0-8.3968-2.235733z" fill="#83CD29" p-id="14476"></path><path d="M908.3904 352.580267a16.520533 16.520533 0 0 0-8.3968 2.235733l-98.901333 57.5488a16.605867 16.605867 0 0 0-8.311467 14.370133v115.2c0 5.9392 3.157333 11.400533 8.311467 14.370134l95.931733 57.838933a16.4864 16.4864 0 0 0 16.8448 0.136533l47.172267-27.357866a7.3728 7.3728 0 0 0 0-12.714667l-102.1952-60.074667V454.997333l49.544533-28.757333 49.544533 28.757333v41.198934c0 5.512533 4.625067 6.365867 7.7312 4.522666 16.6912-9.728 33.416533-19.438933 50.141867-29.098666A16.469333 16.469333 0 0 0 1024 457.386667v-30.651734a16.5376 16.5376 0 0 0-8.328533-14.353066l-98.901334-57.5488a16.605867 16.605867 0 0 0-8.379733-2.235734v-0.034133zM115.6096 352.648533a16.520533 16.520533 0 0 0-8.379733 2.235734L8.328533 412.3648a16.708267 16.708267 0 0 0-8.328533 14.421333v147.080534c0 7.185067 7.799467 11.639467 13.994667 8.055466l43.8784-25.480533a16.503467 16.503467 0 0 0 8.192-14.2336v-87.108267l49.544533-28.842666 49.544533 28.842666v87.108267c0 5.853867 3.140267 11.229867 8.192 14.199467l43.861334 25.514666a9.335467 9.335467 0 0 0 14.011733-8.055466v-147.080534a16.708267 16.708267 0 0 0-8.311467-14.421333l-98.901333-57.480533a16.520533 16.520533 0 0 0-8.3968-2.235734z" fill="#404137" p-id="14477"></path><path d="M908.3904 451.515733l-28.3136 16.469334v32.887466l28.3136 16.418134 28.3136-16.418134v-32.887466z" fill="#83CD29" p-id="14478"></path><path d="M499.080533 585.642667l-92.8768 53.589333c-6.0928 3.4304-9.847467 9.898667-9.813333 16.861867v106.973866c0 6.894933 3.857067 13.380267 9.813333 16.878934l24.439467 13.909333c11.7248 5.768533 16.042667 5.768533 21.367467 5.768533 17.5104 0 27.477333-10.4448 27.477333-28.910933v-105.693867a2.696533 2.696533 0 0 0-2.696533-2.7648h-11.776a2.7648 2.7648 0 0 0-2.7648 2.7648v105.693867c0 8.021333-8.482133 16.247467-22.3232 9.3696l-25.429334-14.6432a2.9696 2.9696 0 0 1-1.399466-2.440533V656.042667c0-0.955733 0.4608-2.065067 1.416533-2.56l92.893867-53.418667a3.003733 3.003733 0 0 1 2.901333 0l92.996267 53.384533c0.955733 0.512 1.416533 1.4848 1.416533 2.594134v106.973866a3.072 3.072 0 0 1-1.416533 2.56L510.293333 819.2a3.003733 3.003733 0 0 1-2.901333 0l-23.722667-14.114133c-0.648533-0.341333-1.6384-0.494933-2.269866-0.170667-4.352 2.781867-9.0624 4.949333-13.994667 6.434133-1.6384 0.494933-3.805867 1.4848 0.853333 4.061867l30.805334 18.2784c3.0208 1.6384 6.382933 2.525867 9.813333 2.577067 3.413333 0.034133 6.775467-0.904533 9.6768-2.696534L611.498667 779.946667c6.075733-3.447467 9.8304-9.898667 9.813333-16.878934v-106.973866a19.8656 19.8656 0 0 0-9.813333-16.861867l-92.928-53.5552a19.3536 19.3536 0 0 0-9.6768-2.5088 19.6608 19.6608 0 0 0-9.813334 2.474667z" fill="#404137" p-id="14479"></path><path d="M653.806933 632.490667a17.8176 17.8176 0 1 1-17.800533 17.834666 17.8176 17.8176 0 0 1 17.800533-17.8176z m-0.2048 2.850133a14.882133 14.882133 0 0 0-14.882133 14.916267 15.0528 15.0528 0 0 0 14.882133 15.172266 15.4112 15.4112 0 0 0 15.189334-15.172266 15.018667 15.018667 0 0 0-15.189334-14.916267z" fill="#83CD29" p-id="14480"></path><path d="M654.882133 640.170667c2.5088 0.068267 6.144 0.5632 6.144 5.290666 0 3.6864-2.389333 4.437333-3.857066 4.949334 2.747733 0.1536 2.884267 1.928533 3.345066 4.5056 0.119467 1.809067 0.426667 3.584 0.955734 5.3248h-4.130134a192.512 192.512 0 0 1-0.750933-6.314667c-0.341333-1.1264-0.682667-1.706667-2.116267-1.706667h-3.584v7.970134h-3.7888V640.170667z m-0.273066 3.208533h-3.703467v5.597867h3.037867c2.6112 0.068267 3.106133-1.774933 3.106133-2.901334 0-2.696533-1.928533-2.696533-2.901333-2.696533z" fill="#83CD29" p-id="14481"></path><path d="M491.52 689.6128c0 20.360533 15.786667 25.8048 41.198933 28.330667 30.378667 3.072 32.768 7.424 32.768 13.3632 0 10.410667-8.3968 14.728533-28.023466 14.728533-24.610133 0-29.986133-6.058667-31.778134-18.261333-0.170667-1.314133-1.314133-2.269867-2.7648-2.269867h-12.100266a2.7136 2.7136 0 0 0-2.696534 2.7648c0 15.547733 8.516267 34.167467 49.186134 34.167467 29.815467 0 46.6944-11.52 46.6944-31.761067 0-20.036267-13.533867-25.378133-42.154667-29.2352-28.928-3.857067-31.7952-5.802667-31.7952-12.544 0-5.614933 2.389333-12.970667 23.773867-12.970667 19.114667 0 26.231467 4.1984 29.1328 17.015467 0.341333 1.314133 1.2288 2.082133 2.525866 2.082133h12.049067c0.785067 0 1.4848-0.341333 1.9456-0.802133 0.512-0.6144 0.802133-1.245867 0.6656-2.048-1.911467-22.135467-16.5888-32.443733-46.353067-32.443733-26.5216 0-42.274133 11.298133-42.274133 29.883733z" fill="#404137" p-id="14482"></path></svg>