<?xml version="1.0" standalone="no"?><!DOCTYPE svg PUBLIC "-//W3C//DTD SVG 1.1//EN" "http://www.w3.org/Graphics/SVG/1.1/DTD/svg11.dtd"><svg t="1747387636649" class="icon" viewBox="0 0 1024 1024" version="1.1" xmlns="http://www.w3.org/2000/svg" p-id="26816" xmlns:xlink="http://www.w3.org/1999/xlink" width="16" height="16"><path d="M388.352 433.088c-49.856 0-97.664 41.216-96.32 106.048 0 66.88 44.416 106.112 103.168 106.112 24.576 0 51.904-8.832 73.088-23.04l-20.48-35.776c-15.04 8.768-29.44 12.8-44.416 12.8-27.328 0-48.512-12.8-53.952-43.84h123.648c0.64-4.736 2.048-14.208 2.048-25.024 0.64-54.72-29.44-97.28-86.784-97.28z m192.64 85.184l8.896 3.328c26.624 8.768 56 24.32 56 61.44 0 37.184-29.376 65.536-84.032 65.536-25.92 0-57.344-11.52-77.888-28.352l26.688-39.168c18.432 14.144 35.52 20.928 52.544 20.928 18.496 0 26.688-6.784 26.688-16.896 0-12.544-17.728-19.264-37.248-26.688l-4.48-1.664c-24.576-9.472-53.888-26.368-53.888-59.52 0-37.12 31.36-63.488 77.824-63.488 31.424 0 54.656 13.504 71.68 26.368l-27.264 35.84c-15.04-10.88-28.672-16.896-43.712-16.896-15.04 0-23.232 6.08-23.232 16.192 0 11.52 14.08 16.704 31.36 23.04z m164.992-0.192c3.008 1.088 6.08 2.24 9.216 3.52 26.624 8.768 56 24.32 56 61.44 0 37.184-29.44 65.536-84.032 65.536-25.92 0-57.344-11.52-77.888-28.352l27.328-39.168c18.432 14.144 35.52 20.928 52.608 20.928 18.432 0 26.624-6.784 26.624-16.896 0-12.544-17.728-19.264-37.248-26.688l-4.416-1.664c-24.576-9.472-53.952-26.368-53.952-59.52 0-37.12 31.424-63.488 77.888-63.488 31.36 0 54.656 13.504 71.68 26.368l-27.264 35.84c-15.04-10.88-28.736-16.896-43.776-16.896-14.976 0-23.168 6.08-23.168 16.192 0 11.456 13.696 16.64 30.4 22.848z m-356.928-39.68c-19.136 0-35.52 12.8-39.68 39.808h73.792c0-22.976-9.536-39.872-34.112-39.872z" fill="#69A7D3" p-id="26817"></path><path d="M216.96 352h-36.288c-36.864 0-53.248 14.208-53.248 58.112 0 29.056 4.096 45.248 4.096 70.272 0 14.144-8.896 29.056-35.52 30.4v35.136c26.624 0.64 35.52 15.552 35.52 29.696 0 24.96-4.096 39.872-4.096 68.928 0 43.904 16.384 58.112 52.608 58.112h26.624v-31.104h-8.192c-17.088 0-22.528-6.72-22.528-29.056 0-22.272 2.048-41.216 2.048-66.176 0-31.104-10.24-43.264-30.72-48v-1.984c20.48-4.736 30.72-16.896 30.72-48 0-24.32-2.048-43.904-2.048-66.176 0-22.336 4.736-28.416 22.528-28.416h18.56V352zM892.48 480.384c0-26.368 4.096-41.92 4.096-70.272 0-43.904-16.384-58.112-52.608-58.112h-26.624v31.104h8.192c18.432 0 22.528 6.08 22.528 28.352 0 20.928-2.048 41.856-2.048 66.24 0 31.04 10.24 43.2 30.72 48v1.92c-20.48 4.8-30.72 16.96-30.72 48 0 24.32 2.048 43.904 2.048 66.24 0 22.976-4.736 29.056-22.528 29.056v0.64h-8.192V704h26.624c36.224 0 52.608-14.208 52.608-58.112 0-29.056-4.096-43.904-4.096-70.272 0-14.144 8.896-29.056 35.52-30.4V510.08c-26.624-0.64-35.52-15.552-35.52-29.696z" fill="#89DDFF" p-id="26818"></path><path d="M277.76 581.056V352h-33.28-27.52v225.664c0 41.216 14.272 68.224 55.936 68.224 12.992 0 23.232-2.048 30.72-4.736l-6.784-43.904c-4.096 0.64-19.136-3.392-19.136-16.192z" fill="#69A7D3" p-id="26819"></path></svg>