<?xml version="1.0" standalone="no"?><!DOCTYPE svg PUBLIC "-//W3C//DTD SVG 1.1//EN" "http://www.w3.org/Graphics/SVG/1.1/DTD/svg11.dtd"><svg t="1747387498764" class="icon" viewBox="0 0 1024 1024" version="1.1" xmlns="http://www.w3.org/2000/svg" p-id="14327" xmlns:xlink="http://www.w3.org/1999/xlink" width="16" height="16"><path d="M3.31581 3.31581h1017.36838v1017.376507H3.31581z" fill="#F0DB4F" p-id="14328"></path><path d="M937.423238 778.044952c-7.452444-46.413206-37.717333-85.398349-127.366095-121.750349-31.142603-14.311619-65.861079-24.559746-76.20673-48.160508-3.673397-13.734603-4.161016-21.471492-1.836699-29.785397 6.672254-26.981587 38.879492-35.393016 64.406349-27.656127 16.440889 5.510095 32.004063 18.180063 41.390731 38.391873 43.901968-28.42819 43.812571-28.24127 74.467555-47.778539-11.223365-17.399873-17.212952-25.429333-24.559746-32.873651-26.404571-29.492825-62.38273-44.682159-119.921778-43.52l-29.972317 3.876571c-28.720762 7.257397-56.092444 22.332952-72.143238 42.544762-48.160508 54.645841-34.425905 150.28419 24.177778 189.643175 57.734095 43.333079 142.547302 53.191111 153.380571 93.712254 10.540698 49.607111-36.457651 65.666032-83.171556 59.960889-34.425905-7.159873-53.573079-24.65727-74.272507-56.474413-38.099302 22.048508-38.099302 22.048508-77.271366 44.576508 9.289143 20.309333 19.049651 29.500952 34.620953 47.095873 73.695492 74.752 258.113016 71.078603 291.189841-42.06527 1.340952-3.884698 10.248127-29.793524 3.088254-69.737651zM556.389587 470.901841H461.23073l-0.390095 246.020064c0 52.321524 2.706286 100.286984-5.802667 114.988698-13.921524 28.91581-49.997206 25.33181-66.438095 19.724191-16.73346-8.224508-25.242413-19.919238-35.100444-36.449524-2.706286-4.746159-4.738032-8.419556-5.420699-8.704l-77.368889 47.380317c12.865016 26.404571 31.817143 49.322667 56.092445 64.211302 36.262603 21.764063 85.000127 28.436317 135.972571 16.73346 33.174349-9.662984 61.797587-29.679746 76.783746-60.147809 21.66654-39.944127 17.017905-88.291556 16.822857-141.767111 0.487619-87.243175 0.008127-174.470095 0.008127-261.989588z" fill="#323330" p-id="14329"></path></svg>