<?xml version="1.0" standalone="no"?><!DOCTYPE svg PUBLIC "-//W3C//DTD SVG 1.1//EN" "http://www.w3.org/Graphics/SVG/1.1/DTD/svg11.dtd"><svg t="1747387798988" class="icon" viewBox="0 0 1024 1024" version="1.1" xmlns="http://www.w3.org/2000/svg" p-id="41015" xmlns:xlink="http://www.w3.org/1999/xlink" width="16" height="16"><path d="M1011.1844 558.062561a149.243336 149.243336 0 0 1-47.742508 69.075174l-316.832765 264.354406a219.171818 219.171818 0 0 1-269.516911 0L60.25945 627.180401a152.656563 152.656563 0 0 1-47.785173-69.11784 140.710269 140.710269 0 0 0 47.785173 155.259148l316.832766 264.354405a219.171818 219.171818 0 0 0 269.516911 0l316.832765-264.354405a140.710269 140.710269 0 0 0 47.785174-155.259148M377.092216 46.334552a219.171818 219.171818 0 0 1 269.516911 0l316.832765 264.354406a140.710269 140.710269 0 0 1 0 224.334323l-316.832765 263.970417a219.171818 219.171818 0 0 1-269.516911 0L60.25945 534.596627a140.710269 140.710269 0 0 1 0-223.907669z" p-id="41016" data-spm-anchor-id="a313x.search_index.0.i30.28a43a812toPcW" class="selected" fill="#1296db"></path></svg>